<mxfile host="app.diagrams.net" modified="2024-01-18T09:30:07.182Z" agent="Mozilla/5.0 (Windows NT 10.0; Win64; x64) AppleWebKit/537.36 (KHTML, like Gecko) Chrome/120.0.0.0 Safari/537.36 OPR/106.0.0.0" etag="WbO40Lj55Y7BBmgnRLob" version="22.1.21" type="github">
  <diagram name="Page-1" id="74e2e168-ea6b-b213-b513-2b3c1d86103e">
    <mxGraphModel dx="2480" dy="749" grid="1" gridSize="10" guides="1" tooltips="1" connect="1" arrows="1" fold="1" page="1" pageScale="1" pageWidth="1100" pageHeight="850" background="none" math="0" shadow="0">
      <root>
        <mxCell id="0" />
        <mxCell id="1" parent="0" />
        <mxCell id="xUWJb8Z6s4xyunuXyuDp-6" value="" style="edgeStyle=orthogonalEdgeStyle;rounded=0;orthogonalLoop=1;jettySize=auto;html=1;" edge="1" parent="1" source="xUWJb8Z6s4xyunuXyuDp-1" target="xUWJb8Z6s4xyunuXyuDp-5">
          <mxGeometry relative="1" as="geometry" />
        </mxCell>
        <mxCell id="xUWJb8Z6s4xyunuXyuDp-8" value="" style="edgeStyle=orthogonalEdgeStyle;rounded=0;orthogonalLoop=1;jettySize=auto;html=1;" edge="1" parent="1" source="xUWJb8Z6s4xyunuXyuDp-1" target="xUWJb8Z6s4xyunuXyuDp-7">
          <mxGeometry relative="1" as="geometry" />
        </mxCell>
        <mxCell id="xUWJb8Z6s4xyunuXyuDp-10" value="" style="edgeStyle=orthogonalEdgeStyle;rounded=0;orthogonalLoop=1;jettySize=auto;html=1;" edge="1" parent="1" source="xUWJb8Z6s4xyunuXyuDp-1" target="xUWJb8Z6s4xyunuXyuDp-9">
          <mxGeometry relative="1" as="geometry" />
        </mxCell>
        <mxCell id="xUWJb8Z6s4xyunuXyuDp-1" value="&lt;font style=&quot;font-size: 18px;&quot;&gt;Module&lt;/font&gt;" style="rounded=0;whiteSpace=wrap;html=1;" vertex="1" parent="1">
          <mxGeometry x="440" y="20" width="190" height="90" as="geometry" />
        </mxCell>
        <mxCell id="xUWJb8Z6s4xyunuXyuDp-5" value="&lt;font style=&quot;font-size: 18px;&quot;&gt;E-commerce&lt;/font&gt;" style="rounded=0;whiteSpace=wrap;html=1;" vertex="1" parent="1">
          <mxGeometry x="-100" y="190" width="190" height="90" as="geometry" />
        </mxCell>
        <mxCell id="xUWJb8Z6s4xyunuXyuDp-7" value="&lt;font style=&quot;font-size: 18px;&quot;&gt;Hotel Management&lt;/font&gt;" style="rounded=0;whiteSpace=wrap;html=1;" vertex="1" parent="1">
          <mxGeometry x="440" y="190" width="190" height="90" as="geometry" />
        </mxCell>
        <mxCell id="xUWJb8Z6s4xyunuXyuDp-9" value="&lt;font style=&quot;font-size: 18px;&quot;&gt;Real Estate&lt;/font&gt;" style="rounded=0;whiteSpace=wrap;html=1;" vertex="1" parent="1">
          <mxGeometry x="960" y="200" width="190" height="90" as="geometry" />
        </mxCell>
        <mxCell id="xUWJb8Z6s4xyunuXyuDp-11" value="&lt;font style=&quot;font-size: 18px;&quot;&gt;&lt;b&gt;&lt;font style=&quot;&quot;&gt;User&lt;/font&gt;&lt;/b&gt;&lt;br&gt;&lt;/font&gt;&lt;br&gt;Id&lt;br&gt;First name&lt;br&gt;Last name&lt;br&gt;Age&lt;br&gt;Address&lt;br&gt;Location&lt;br&gt;Email&lt;br&gt;Phone&lt;br&gt;Subscription Url&lt;br&gt;permissions" style="rounded=0;whiteSpace=wrap;html=1;" vertex="1" parent="1">
          <mxGeometry x="474" y="420" width="120" height="230" as="geometry" />
        </mxCell>
        <mxCell id="xUWJb8Z6s4xyunuXyuDp-12" value="&lt;font style=&quot;&quot;&gt;&lt;b style=&quot;font-size: 18px;&quot;&gt;Admin&lt;/b&gt;&lt;br&gt;&lt;font style=&quot;font-size: 12px;&quot;&gt;Id&lt;br&gt;&lt;/font&gt;Username&lt;br&gt;Password&lt;br&gt;Permmisions&lt;br&gt;&lt;/font&gt;" style="rounded=0;whiteSpace=wrap;html=1;" vertex="1" parent="1">
          <mxGeometry x="475" y="780" width="120" height="210" as="geometry" />
        </mxCell>
        <mxCell id="xUWJb8Z6s4xyunuXyuDp-13" value="&lt;font style=&quot;font-size: 18px;&quot;&gt;Super User&lt;/font&gt;&lt;br&gt;Username&lt;br&gt;password" style="rounded=0;whiteSpace=wrap;html=1;" vertex="1" parent="1">
          <mxGeometry x="474" y="1080" width="120" height="170" as="geometry" />
        </mxCell>
        <mxCell id="xUWJb8Z6s4xyunuXyuDp-15" value="" style="endArrow=classic;html=1;rounded=0;entryX=0.421;entryY=0.989;entryDx=0;entryDy=0;entryPerimeter=0;exitX=0;exitY=0.087;exitDx=0;exitDy=0;exitPerimeter=0;" edge="1" parent="1" source="xUWJb8Z6s4xyunuXyuDp-11" target="xUWJb8Z6s4xyunuXyuDp-5">
          <mxGeometry relative="1" as="geometry">
            <mxPoint x="460" y="440" as="sourcePoint" />
            <mxPoint x="-20" y="300" as="targetPoint" />
            <Array as="points">
              <mxPoint x="-20" y="440" />
            </Array>
          </mxGeometry>
        </mxCell>
        <mxCell id="xUWJb8Z6s4xyunuXyuDp-16" value="Label" style="edgeLabel;resizable=0;html=1;align=center;verticalAlign=middle;" connectable="0" vertex="1" parent="xUWJb8Z6s4xyunuXyuDp-15">
          <mxGeometry relative="1" as="geometry" />
        </mxCell>
        <mxCell id="xUWJb8Z6s4xyunuXyuDp-17" value="Subscribe" style="edgeLabel;html=1;align=center;verticalAlign=middle;resizable=0;points=[];" vertex="1" connectable="0" parent="xUWJb8Z6s4xyunuXyuDp-15">
          <mxGeometry x="-0.0105" y="-7" relative="1" as="geometry">
            <mxPoint y="5" as="offset" />
          </mxGeometry>
        </mxCell>
        <mxCell id="xUWJb8Z6s4xyunuXyuDp-18" value="" style="endArrow=classic;html=1;rounded=0;exitX=0.5;exitY=0;exitDx=0;exitDy=0;entryX=0.5;entryY=1;entryDx=0;entryDy=0;" edge="1" parent="1" source="xUWJb8Z6s4xyunuXyuDp-11" target="xUWJb8Z6s4xyunuXyuDp-7">
          <mxGeometry relative="1" as="geometry">
            <mxPoint x="520" y="370" as="sourcePoint" />
            <mxPoint x="620" y="370" as="targetPoint" />
          </mxGeometry>
        </mxCell>
        <mxCell id="xUWJb8Z6s4xyunuXyuDp-19" value="Label" style="edgeLabel;resizable=0;html=1;align=center;verticalAlign=middle;" connectable="0" vertex="1" parent="xUWJb8Z6s4xyunuXyuDp-18">
          <mxGeometry relative="1" as="geometry" />
        </mxCell>
        <mxCell id="xUWJb8Z6s4xyunuXyuDp-20" value="Subscribe" style="edgeLabel;html=1;align=center;verticalAlign=middle;resizable=0;points=[];" vertex="1" connectable="0" parent="xUWJb8Z6s4xyunuXyuDp-18">
          <mxGeometry x="-0.0135" y="-8" relative="1" as="geometry">
            <mxPoint x="-7" as="offset" />
          </mxGeometry>
        </mxCell>
        <mxCell id="xUWJb8Z6s4xyunuXyuDp-21" value="" style="endArrow=classic;html=1;rounded=0;exitX=0.996;exitY=0.083;exitDx=0;exitDy=0;entryX=0.5;entryY=1;entryDx=0;entryDy=0;exitPerimeter=0;" edge="1" parent="1" source="xUWJb8Z6s4xyunuXyuDp-11" target="xUWJb8Z6s4xyunuXyuDp-9">
          <mxGeometry relative="1" as="geometry">
            <mxPoint x="680" y="420" as="sourcePoint" />
            <mxPoint x="189" y="250" as="targetPoint" />
            <Array as="points">
              <mxPoint x="1055" y="440" />
            </Array>
          </mxGeometry>
        </mxCell>
        <mxCell id="xUWJb8Z6s4xyunuXyuDp-22" value="Label" style="edgeLabel;resizable=0;html=1;align=center;verticalAlign=middle;" connectable="0" vertex="1" parent="xUWJb8Z6s4xyunuXyuDp-21">
          <mxGeometry relative="1" as="geometry" />
        </mxCell>
        <mxCell id="xUWJb8Z6s4xyunuXyuDp-23" value="Subscribe" style="edgeLabel;html=1;align=center;verticalAlign=middle;resizable=0;points=[];" vertex="1" connectable="0" parent="xUWJb8Z6s4xyunuXyuDp-21">
          <mxGeometry x="-0.0105" y="-7" relative="1" as="geometry">
            <mxPoint y="5" as="offset" />
          </mxGeometry>
        </mxCell>
        <mxCell id="xUWJb8Z6s4xyunuXyuDp-24" value="" style="endArrow=classic;html=1;rounded=0;entryX=0.5;entryY=1;entryDx=0;entryDy=0;exitX=0.5;exitY=0;exitDx=0;exitDy=0;" edge="1" parent="1" source="xUWJb8Z6s4xyunuXyuDp-12" target="xUWJb8Z6s4xyunuXyuDp-11">
          <mxGeometry relative="1" as="geometry">
            <mxPoint x="490" y="720" as="sourcePoint" />
            <mxPoint x="590" y="720" as="targetPoint" />
            <Array as="points">
              <mxPoint x="535" y="760" />
            </Array>
          </mxGeometry>
        </mxCell>
        <mxCell id="xUWJb8Z6s4xyunuXyuDp-25" value="Label" style="edgeLabel;resizable=0;html=1;align=center;verticalAlign=middle;" connectable="0" vertex="1" parent="xUWJb8Z6s4xyunuXyuDp-24">
          <mxGeometry relative="1" as="geometry" />
        </mxCell>
        <mxCell id="xUWJb8Z6s4xyunuXyuDp-26" value="View User Details&lt;br&gt;Grant permission&lt;br&gt;Deny permission&lt;br&gt;Block User&lt;br&gt;Delete User" style="edgeLabel;html=1;align=center;verticalAlign=middle;resizable=0;points=[];" vertex="1" connectable="0" parent="xUWJb8Z6s4xyunuXyuDp-24">
          <mxGeometry x="-0.0254" relative="1" as="geometry">
            <mxPoint as="offset" />
          </mxGeometry>
        </mxCell>
      </root>
    </mxGraphModel>
  </diagram>
</mxfile>
